<svg width="26" height="26" viewBox="0 0 26 26" fill="none" xmlns="http://www.w3.org/2000/svg">
<path d="M13 2.84375C18.613 2.84375 23.1562 7.38618 23.1562 13C23.1562 18.613 18.6138 23.1562 13 23.1562C7.38705 23.1562 2.84375 18.6138 2.84375 13C2.84375 7.38705 7.38618 2.84375 13 2.84375ZM13 0.40625C6.04464 0.40625 0.40625 6.04464 0.40625 13C0.40625 19.9554 6.04464 25.5938 13 25.5938C19.9554 25.5938 25.5938 19.9554 25.5938 13C25.5938 6.04464 19.9554 0.40625 13 0.40625ZM13 8.9375C10.7563 8.9375 8.9375 10.7563 8.9375 13C8.9375 15.2437 10.7563 17.0625 13 17.0625C15.2437 17.0625 17.0625 15.2437 17.0625 13C17.0625 10.7563 15.2437 8.9375 13 8.9375Z" fill="white"/>
</svg>
